<?xml version="1.0" standalone="no"?>
<!DOCTYPE svg PUBLIC "-//W3C//DTD SVG 20010904//EN"
 "http://www.w3.org/TR/2001/REC-SVG-20010904/DTD/svg10.dtd">
<svg version="1.0" xmlns="http://www.w3.org/2000/svg"
 width="200.000000pt" height="200.000000pt" viewBox="0 0 200.000000 200.000000"
 preserveAspectRatio="xMidYMid meet">
<metadata>
Created by potrace 1.11, written by Peter Selinger 2001-2013
</metadata>
<g transform="translate(0.000000,200.000000) scale(0.100000,-0.100000)"
fill="#000000" stroke="none">
<path d="M535 1430 l-30 -5 0 -220 0 -220 63 2 c87 2 144 31 179 90 14 25 26
61 26 79 0 41 12 44 22 7 7 -32 15 -42 177 -247 87 -109 118 -156 118 -176 0
-50 -25 -41 -77 28 -84 111 -213 274 -214 270 -1 -4 -1 -320 0 -341 1 -16 15
-18 179 -17 166 1 180 3 228 25 65 32 96 84 97 164 1 73 -8 89 -175 310 -76
101 -138 190 -136 199 3 16 34 40 41 32 3 -3 57 -79 121 -168 l116 -164 0 176
0 176 -181 0 c-165 0 -185 -2 -219 -21 -45 -25 -90 -92 -90 -134 -1 -26 -3
-23 -19 23 -20 58 -42 87 -84 108 -37 20 -105 31 -142 24z m139 -61 c44 -30
65 -77 70 -151 7 -124 -44 -187 -168 -203 l-46 -7 0 197 0 197 54 -4 c36 -3
67 -13 90 -29z m289 -5 c4 -20 15 -46 25 -58 41 -46 252 -328 268 -358 23 -43
21 -119 -3 -160 -20 -34 -60 -61 -107 -72 -24 -6 -27 -4 -22 9 11 28 -19 77
-134 220 -154 192 -170 217 -177 274 -8 69 11 116 59 152 58 41 84 39 91 -7z
m277 -76 c0 -61 -2 -109 -4 -107 -2 2 -38 52 -79 112 l-77 107 80 0 80 0 0
-112z m-230 -573 c0 -3 -40 -5 -90 -5 l-90 0 0 121 0 120 90 -115 c50 -63 90
-118 90 -121z"/>
<path d="M1464 1432 c-51 -8 -68 -15 -104 -48 -45 -41 -62 -85 -59 -151 3 -68
22 -100 168 -286 144 -182 159 -208 135 -232 -14 -14 -29 2 -146 152 -72 93
-133 170 -135 172 -1 2 -3 -78 -3 -178 l0 -183 188 4 c155 2 192 6 219 21 53
28 82 67 94 125 18 90 4 119 -162 339 -82 107 -149 201 -149 208 0 6 9 20 19
29 18 17 23 11 140 -155 102 -144 121 -167 121 -143 1 16 1 94 2 174 l0 145
-154 5 c-86 3 -164 4 -174 2z m16 -57 c0 -16 50 -91 149 -222 151 -201 176
-247 165 -307 -7 -42 -31 -84 -58 -101 -28 -19 -86 -36 -87 -27 -6 61 -6 61
-163 260 -159 202 -178 247 -141 335 17 40 77 87 112 87 18 0 23 -6 23 -25z
m280 -80 c0 -58 -2 -105 -4 -105 -5 0 -146 197 -146 204 0 3 34 6 75 6 l75 0
0 -105z m-273 -517 l54 -68 -96 0 -95 0 0 121 0 121 42 -54 c23 -29 66 -83 95
-120z"/>
<path d="M189 1398 c0 -42 0 -689 0 -705 1 -10 36 -13 141 -13 l140 0 0 375 0
375 -140 0 -140 0 -1 -32z m248 -343 l0 -345 -109 0 -108 0 0 345 0 345 108 0
109 0 0 -345z"/>
</g>
</svg>
